<?xml version="1.0" encoding="UTF-8"?>
<svg id="Layer_2" xmlns="http://www.w3.org/2000/svg" version="1.1" viewBox="0 0 300.5 81">
  <!-- Generator: Adobe Illustrator 30.1.0, SVG Export Plug-In . SVG Version: 2.1.1 Build 136)  -->
  <defs>
    <style>
      .st0 {
        fill: #fff;
      }
    </style>
  </defs>
  <g>
    <g id="Layer_1-2">
      <path class="st0" d="M62,4c8.3,0,15,6.7,15,15v43c0,8.3-6.7,15-15,15H19c-8.3,0-15-6.7-15-15V19c0-8.3,6.7-15,15-15h43M62,0H19C8.5,0,0,8.5,0,19v43c0,10.5,8.5,19,19,19h43c10.5,0,19-8.5,19-19V19c0-10.5-8.5-19-19-19h0Z"/>
    </g>
    <g id="Layer_1-21">
      <path class="st0" d="M64.2,59.3c.7.9.2,1.7-.9,1.7h-10.5c-.7,0-1.2-.2-1.7-.8l-10.8-15h-4.7v14.7c0,.8-.4,1.2-1.2,1.2h-9.2c-.8,0-1.2-.5-1.2-1.2V21.2c0-.7.5-1.2,1.2-1.2h9.2c.8,0,1.2.5,1.2,1.2v14.3h4.5l11-14.7c.4-.6,1-.8,1.7-.8h9.6c1.1,0,1.7.8.9,1.8l-13.4,17.8,14.2,19.7h.1Z"/>
    </g>
  </g>
  <polygon class="st0" points="119.1 31.1 109.9 31.1 101.6 40.8 101.6 31.1 94 31.1 94 55.5 101.6 55.5 101.6 43.2 101.7 43.2 109.9 55.5 119.4 55.5 109.4 42.1 119.1 31.1"/>
  <path class="st0" d="M141.9,33.8c-.9-1.1-2-1.9-3.4-2.4-1.4-.6-3.2-.8-5.4-.8s-4,.3-5.8,1c-1.9.7-3.5,1.6-4.9,2.9l4,4.1c.8-.9,1.7-1.6,2.7-2.1s2.2-.8,3.4-.8,2.4.4,3.4,1.2,1.4,1.9,1.4,3.2h-3.4c-1.2,0-2.4,0-3.7.3-1.2.2-2.4.4-3.5.8-1.1.4-2.2.8-3,1.5s-1.6,1.4-2.1,2.4-.8,2.2-.8,3.6.2,2.3.7,3.3c.5.9,1.1,1.7,1.9,2.4.8.6,1.7,1.1,2.8,1.4,1.1.3,2.2.5,3.3.5s3-.3,4.4-.9,2.5-1.5,3.3-2.8h0v3.1h6.9v-12.4c0-2-.2-3.8-.5-5.4-.3-1.6-.9-2.9-1.8-3.9v-.2ZM137.3,46.4c0,.8-.2,1.4-.5,2s-.7,1-1.3,1.4c-.5.4-1.1.7-1.8.9s-1.4.3-2.1.3-1.6-.2-2.4-.7c-.8-.4-1.2-1.1-1.2-2s.3-1.5.8-2,1.2-.8,2-1.1c.8-.2,1.6-.4,2.5-.4h4v1.6Z"/>
  <path class="st0" d="M158.9,23.9h-7.5v7.2h-4.8v6h4.8v11.6c0,1.3.2,2.5.7,3.4s1.1,1.7,1.9,2.3c.8.6,1.7,1,2.8,1.3s2.2.4,3.5.4,1.8,0,2.7-.2c.9,0,1.8-.3,2.6-.6v-6.3c-.3.3-.8.5-1.5.6-.7,0-1.2,0-1.6,0-.8,0-1.4,0-1.9-.3s-.8-.5-1.1-.9c-.2-.4-.4-.9-.5-1.4,0-.6-.1-1.2-.1-1.8v-8.1h6.6v-6h-6.6v-7.2h0Z"/>
  <path class="st0" d="M184.6,52.5h0v3.1h6.9v-12.4c0-2-.2-3.8-.5-5.4-.3-1.6-.9-2.9-1.8-3.9-.9-1.1-2-1.9-3.4-2.4-1.4-.6-3.2-.8-5.4-.8s-4,.3-5.8,1c-1.9.7-3.5,1.6-4.9,2.9l4,4.1c.8-.9,1.7-1.6,2.7-2.1s2.2-.8,3.4-.8,2.4.4,3.4,1.2,1.4,1.9,1.4,3.2h-3.4c-1.2,0-2.4,0-3.7.3-1.2.2-2.4.4-3.5.8-1.1.4-2.2.8-3,1.5s-1.6,1.4-2.1,2.4-.8,2.2-.8,3.6.2,2.3.7,3.3c.5.9,1.1,1.7,1.9,2.4.8.6,1.7,1.1,2.8,1.4,1.1.3,2.2.5,3.3.5s3-.3,4.4-.9,2.5-1.5,3.3-2.8v-.2ZM178.9,51c-.8,0-1.6-.2-2.4-.7-.8-.4-1.2-1.1-1.2-2s.3-1.5.8-2,1.2-.8,2-1.1c.8-.2,1.6-.4,2.5-.4h4v1.6c0,.8-.2,1.4-.5,2s-.7,1-1.3,1.4c-.5.4-1.1.7-1.8.9s-1.4.3-2.1.3Z"/>
  <path class="st0" d="M220.2,34.1c-1.1-1.1-2.3-2-3.8-2.6s-3.1-.9-4.9-.9-1.7.1-2.5.4c-.8.2-1.5.5-2.1.9-.7.4-1.2.8-1.7,1.2-.5.5-.9.9-1.2,1.3h-.1v-3.2h-6.9v31.8h7.5v-10h.1c.9,1.2,2,2,3.3,2.5,1.4.5,2.8.7,4.4.7s3.3-.4,4.7-1.1c1.4-.7,2.5-1.7,3.5-2.9s1.7-2.6,2.2-4.1c.5-1.6.8-3.2.8-4.9s-.3-3.5-.9-5.1c-.6-1.5-1.4-2.9-2.4-4h0ZM214.4,47.8c-1.1,1.1-2.5,1.7-4.4,1.7s-3.4-.6-4.4-1.7c-1.1-1.1-1.6-2.6-1.6-4.5s.5-3.3,1.6-4.5c1.1-1.1,2.5-1.7,4.4-1.7s3.4.6,4.4,1.7c1.1,1.1,1.6,2.6,1.6,4.5s-.5,3.3-1.6,4.5Z"/>
  <path class="st0" d="M243.9,43.3c0,.8,0,1.6-.2,2.3,0,.7-.3,1.4-.6,2s-.8,1.1-1.4,1.4c-.6.4-1.4.5-2.4.5s-1.7-.2-2.2-.6c-.5-.4-.9-.9-1.2-1.6-.3-.6-.4-1.3-.5-2.1v-14.1h-7.5v13.5c0,1.6.1,3.2.3,4.6.2,1.4.7,2.6,1.3,3.7s1.6,1.8,2.8,2.4c1.2.6,2.7.9,4.6.9s1.7,0,2.5-.4c.8-.2,1.5-.5,2.1-.9s1.1-.8,1.5-1.3.8-.9,1-1.4h.1v3.3h7.2v-24.4h-7.5v12.2h0Z"/>
  <rect class="st0" x="256.8" y="22" width="7.5" height="33.6"/>
  <path class="st0" d="M279.8,23.9h-7.5v7.2h-4.8v6h4.8v11.6c0,1.3.2,2.5.7,3.4s1.1,1.7,1.9,2.3,1.7,1,2.8,1.3c1.1.3,2.2.4,3.5.4s1.8,0,2.7-.2c.9,0,1.8-.3,2.6-.6v-6.3c-.3.3-.8.5-1.5.6-.7,0-1.2,0-1.6,0-.8,0-1.4,0-1.9-.3s-.8-.5-1.1-.9c-.2-.4-.4-.9-.5-1.4,0-.6-.1-1.2-.1-1.8v-8.1h6.6v-6h-6.6v-7.2h0Z"/>
  <path class="st0" d="M299.3,49.4c-.2-.6-.6-1.1-1-1.5s-.9-.7-1.5-1c-.6-.2-1.2-.4-1.8-.4s-1.2,0-1.8.4c-.6.2-1.1.6-1.5,1s-.7.9-1,1.5c-.2.6-.4,1.2-.4,1.8s.1,1.2.4,1.8c.2.6.6,1.1,1,1.5s.9.7,1.5,1c.6.2,1.2.4,1.8.4s1.2,0,1.8-.4c.6-.2,1.1-.6,1.5-1s.7-.9,1-1.5c.2-.6.4-1.2.4-1.8s-.1-1.2-.4-1.8Z"/>
</svg>